<svg xmlns="http://www.w3.org/2000/svg" xml:space="preserve" x="0" y="0" version="1.1" viewBox="0 0 550 550"><path d="M529.28 526.23 270.97 8.91M12.68 526.19 270.97 8.91m258.31 517.32H13.87" fill="none"/><path d="m378.81 224.9 150.47 301.33H282.09V224.9z" fill="#7c321d"/><path d="M259.87 224.9v301.33H12.68L163.14 224.9z"/><path d="M224.69 399.27c11.33 4.33-6.67 1.67-6.67 1.67l-16 .33s-24 3.67-27.66 9.67c-3.67 6-.34 19-.34 19s5.67 39.66 5 43.33c-.66 3.67 7 7.33 7 7.33l5.34 11s3.71 3.71 5.78 4.49c-.98.63-2.12 1.51-2.12 1.51h-6.33l-5-4-10.33-.33s3.66-23.33 0-42.67c-3.67-19.33-2.67-28.66-11.34-38-8.66-9.33-34.33-17-34.33-17s-15.33-4.66-17.67-8c-2.33-3.33-12-24.66 2.34-39.33 14.33-14.67 24.5-8 23.91-9-.58-1 9.75 8.33 10.75 10.67 1 2.33 2.92-6.54 9.67-6.34 6.75.21 14.59 12 18.3 13.67 3.7 1.67 13.74 15.14 15.03 16.67 9.67 11.33 20.67 13.66 18.34 20-2.34 6.33 5 1 16.33 5.33z" fill="#fff"/><path d="M197.14 496.09c.93-.59 1.71-.96 1.22-.15-.21.36-.66.36-1.22.15z" fill="#fff"/><path d="m155.7 411.23.05.1c.02.04.04.07.01.03a.767.767 0 0 0-.05-.19c-.08-.29-.23-.7-.41-1.22-.38-1.04-.95-2.52-1.72-4.24-.78-1.71-1.75-3.69-3.07-5.52-.66-.91-1.44-1.78-2.31-2.41a4.5 4.5 0 0 0-1.38-.7c-.21-.06-.54-.14-.85-.2-.31-.07-.61-.12-.95-.21-1.32-.34-2.52-.84-3.65-1.19-1.12-.35-2.22-.55-3.35-.58-1.13-.05-2.25.01-3.32.08-1.07.11-2.09.19-3.03.3-1.89.23-3.46.42-4.57.55-1.11.13-1.75.19-1.75.19s.6-.22 1.66-.58c.53-.18 1.17-.4 1.92-.6.75-.22 1.59-.47 2.53-.69a38.4 38.4 0 0 1 3.05-.65c1.1-.17 2.27-.35 3.53-.36 1.24-.03 2.61.09 3.88.49 1.27.37 2.43.82 3.57 1.1.27.09.6.15.91.22.31.07.6.14 1 .25.72.24 1.4.59 1.95 1.03 1.15.85 1.93 1.94 2.62 2.98.68 1.05 1.19 2.13 1.63 3.16.44 1.03.78 2.03 1.06 2.95.56 1.85.87 3.43 1.03 4.54.09.55.12 1 .14 1.3.01.07 0 .15 0 .2-.02.16-.11-.01-.09-.02a.817.817 0 0 1-.04-.11zm-8.68-61.29s.24.58.62 1.61c.34 1.05.78 2.57 1.19 4.41.42 1.83.83 3.98 1.25 6.28.21 1.15.42 2.33.64 3.53.23 1.2.43 2.42.69 3.63.22 1.22.47 2.43.73 3.61.25 1.19.55 2.34.81 3.46.33 1.1.58 2.19.91 3.19.35.99.61 1.96.99 2.8.34.85.64 1.65 1.01 2.3.35.66.59 1.29.92 1.72.58.91.91 1.46.91 1.46s-.45-.43-1.23-1.22c-.42-.38-.79-.94-1.25-1.56-.22-.32-.49-.64-.71-1.01-.22-.38-.44-.77-.68-1.19-.51-.82-.9-1.77-1.35-2.77-.44-1-.81-2.09-1.2-3.21-.32-1.14-.74-2.3-1-3.52-.3-1.21-.58-2.44-.82-3.67-.25-1.24-.42-2.48-.63-3.7-.19-1.22-.33-2.43-.48-3.59-.28-2.33-.48-4.5-.65-6.36-.09-.93-.16-1.78-.23-2.54-.08-.75-.15-1.41-.21-1.95-.15-1.09-.23-1.71-.23-1.71z"/><path d="M225 399.48c11.33 4.33-6.67 1.67-6.67 1.67l-16 .33s-24 3.67-27.66 9.67c-3.67 6-.34 19-.34 19s5.67 39.66 5 43.33c-.66 3.67 7 7.33 7 7.33l5.34 11s3.71 3.71 5.78 4.49c-.98.63-2.12 1.51-2.12 1.51H189l-5-4-10.33-.33s3.66-23.33 0-42.67c-3.67-19.33-2.67-28.66-11.34-38-8.66-9.33-34.33-17-34.33-17s-15.33-4.66-17.67-8c-2.33-3.33-12-24.66 2.34-39.33 14.33-14.67 22.93-9.62 23.91-9 1.3.81 9.75 8.33 10.75 10.67 1 2.33 2.92-6.54 9.67-6.34 6.75.21 14.59 12 18.3 13.67 3.7 1.67 13.74 15.14 15.03 16.67 9.67 11.33 20.67 13.66 18.34 20-2.34 6.33 5 1 16.33 5.33z" fill="#bcd8bd"/><path d="M197.45 496.3c.93-.59 1.71-.96 1.22-.15-.21.36-.66.36-1.22.15zm-43.12-89.49s-3.67-8.42-7-9.58-.83-.67-7.41-2-11.5.67-11.5.67l25.91 10.91z" fill="#bcd8bd"/><path d="M168.53 290.6s.36 2.13.97 5.27c.16.78.32 1.63.5 2.53.19.89.39 1.83.59 2.8.46 1.93.89 4 1.47 6.03.25 1.03.53 2.04.83 3.04.28 1 .57 1.98.88 2.92.29.95.59 1.86.88 2.72.29.86.56 1.68.84 2.43l.74 2.05c.24.61.44 1.14.61 1.57.33.88.51 1.4.51 1.4s-.32-.43-.86-1.21c-.27-.39-.59-.86-.95-1.42-.34-.56-.71-1.21-1.1-1.92-.19-.36-.4-.73-.61-1.11-.19-.4-.38-.81-.57-1.23-.39-.84-.82-1.73-1.16-2.69-.36-.95-.77-1.92-1.06-2.95-.33-1.01-.65-2.05-.92-3.1-.28-1.05-.5-2.11-.73-3.15-.25-1.04-.36-2.08-.54-3.08-.28-2.01-.46-3.89-.5-5.51-.13-3.24.18-5.39.18-5.39z"/><path d="M250.33 299.15s6 11.66-7 21.33c-13 9.67-20.66 25.67-20.66 25.67s-10.34 16.66-10.34 29.62 1.34 18.38 0 31.38c-.94 9.14-10.77 30.8-16.53 42.86l-2.81-.95c4.59-9.71 12.39-33.02 12.39-33.02s5.5-9 3.37-23.56-6.13-13.5-7.13-15.25-6.24-4.63-6.56-5.37c-.31-.76-10-7.88-10-7.88-2.06-2.38-6.06-3.69-5.81-5.12.25-1.44-4.19-4.82-5.19-5.26-1-.43-3.87-2.43-3.87-4.18s-11.13-11.75-12.07-11.75c-.93 0-5.68-4.25-5.81-6.69-.12-2.44-4.12-4.94-4.12-4.94-2.88-1.81-6.5-4.81-8.13-5.44-1.62-.62-1.75-2.06-2.62-3-.88-.93.25-6.18.31-7.31.06-1.12 1.37-5.93 1.69-6.87.31-.94 1.44-2.88 2.18-3.56.76-.69 1.19-3.19 1.5-4.63.32-1.44 1.19-2.37 2.63-3.5s3.44-1.25 3.44-1.25l.81-1.62c2.06-4.82 4.67-5.82 4.67-5.82 3.33-4.11 5.51-3.38 6.85-3.05 1.33.34 10.15 19.49 8.81 15.82-1.33-3.66 1.67-22.33 1.67-22.33 0-3.33 3.67-8 5.33-8.67 1.67-.66 3.67 3.34 8.34 7.67 4.66 4.33 9.77 9.48 11.66 9.27 11.93-1.32 14 .4 20.36.03s4.31 3.03 15.31 5.7c11 2.67 17.33 11.67 17.33 11.67z" fill="#bcd8bd"/><path d="m192.99 449.06 2.81.95c-2.43 5.09-4.13 8.47-4.13 8.47s-7.09 18.2-8 17.33l.45 1.86c.46 1.85 1.76 1.62 3.88 2.56s1.81 1.06 2.38 2.56c.56 1.5-.76 2.94-.76 2.94-.31.69 1 .75 1.94.87.94.13 1.25 1.07 1.88 2.07.62 1-1.56 1.43-1.56 1.43l-6.38 2.13c-.31.37-7.94 3-8.31 3.87-.38.88-5.13 2-7.31 2.5-2.19.5-3.26 0-4.5.69-1.26.69-2.94.63-2.94.63h-2.63c-.62 0 .31-.63.69-.88s2.38-1.5 3.62-1.87c1.26-.38 4.63-1.31 5.5-1.94.88-.63 2.94-.56 3.82-1.13.87-.56.68-2.43 1-5 .31-2.56.37-3.37 1.06-7.37s3.12-6.25 5.06-9.25 6.94-13.69 11.13-20.88c.39-.67.83-1.53 1.3-2.54z" fill="#bcd8bd"/><path d="M224.23 399.6c11.28 4.31-6.64 1.66-6.64 1.66l-15.93.33s-23.9 3.65-27.55 9.63c-3.65 5.98-.34 18.92-.34 18.92s5.65 39.5 4.98 43.15c-.66 3.65 6.97 7.3 6.97 7.3l5.32 10.95s3.69 3.69 5.76 4.47c-.98.63-2.11 1.5-2.11 1.5h-6.3l-4.98-3.98-10.29-.33s3.64-23.23 0-42.49c-3.65-19.25-2.66-28.54-11.29-37.84-8.62-9.29-34.19-16.93-34.19-16.93s-15.27-4.64-17.6-7.97c-2.32-3.32-11.95-24.56 2.33-39.17 14.27-14.61 22.76-9.43 23.81-8.96 1.68.75 9.23 8.64 11.16 10.3 1.51 1.3 2.45-6.18 9.17-5.99 6.72.21 14.53 11.95 18.22 13.61 3.68 1.66 13.68 15.08 14.97 16.6 9.63 11.28 20.59 13.6 18.26 19.92-2.33 6.32 4.98 1.01 16.27 5.32zm-27.44 96.43c.93-.59 1.7-.96 1.21-.15-.2.35-.65.35-1.21.15z" fill="#a1c180"/><path d="M154.54 407.46s-3.94-9.65-7.25-10.29c-3.45-.67-.83-.66-7.38-1.99-6.56-1.33-12.01.82-12.01.82l26.64 11.46z" fill="#bcd8bd"/><path d="M249.87 299.49s5.98 11.61-6.97 21.24-20.58 25.56-20.58 25.56-10.3 16.59-10.3 29.5 1.33 18.3 0 31.25c-.94 9.1-10.73 30.67-16.46 42.68l-2.79-.95c4.56-9.67 12.33-32.88 12.33-32.88s5.48-8.96 3.36-23.46c-2.12-14.5-6.1-13.44-7.1-15.19-1-1.74-6.21-4.61-6.53-5.35-.31-.76-9.96-7.85-9.96-7.85-2.05-2.37-6.04-3.67-5.79-5.1.25-1.43-4.17-4.8-5.17-5.24-1-.43-3.85-2.42-3.85-4.16s-11.08-11.7-12.02-11.7c-.93 0-5.66-4.23-5.79-6.66-.12-2.43-4.1-4.92-4.1-4.92-2.87-1.8-6.47-4.79-8.1-5.42-1.61-.62-1.74-2.05-2.61-2.99-.88-.93.25-6.15.31-7.28.06-1.12 1.36-5.91 1.68-6.84.31-.94 1.43-2.87 2.17-3.55.76-.69 1.19-3.18 1.49-4.61.32-1.43 1.19-2.36 2.62-3.49 1.43-1.13 3.43-1.24 3.43-1.24l.81-1.61c2.05-4.8 4.65-5.8 4.65-5.8 3.32-4.09 5.64-3.55 6.97-3.22 1.32.34 9.96 19.59 8.62 15.93-1.32-3.64 1.66-22.24 1.66-22.24 0-3.32 3.65-7.97 5.31-8.63 1.66-.66 3.65 3.33 8.31 7.64 4.64 4.31 9.8 9.47 11.61 9.23 11.63-1.49 13.94.4 20.28.03 6.33-.37 4.29 3.02 15.25 5.68 10.95 2.67 17.26 11.64 17.26 11.64zm-57.1 149.29 2.79.95c-2.42 5.07-4.11 8.44-4.11 8.44s-7.06 18.13-7.97 17.26l.45 1.85c.46 1.84 1.75 1.61 3.86 2.55 2.11.94 1.8 1.06 2.37 2.55.56 1.49-.76 2.93-.76 2.93-.31.69 1 .75 1.93.87.94.13 1.24 1.07 1.87 2.06.62 1-1.55 1.42-1.55 1.42l-6.35 2.12c-.31.37-7.91 2.99-8.28 3.85-.38.88-5.11 1.99-7.28 2.49-2.18.5-3.25 0-4.48.69-1.25.69-2.93.63-2.93.63h-2.62c-.62 0 .31-.63.69-.88.38-.25 2.37-1.49 3.61-1.86 1.25-.38 4.61-1.3 5.48-1.93.88-.63 2.93-.56 3.8-1.13.87-.56.68-2.42 1-4.98.31-2.55.37-3.36 1.06-7.34.69-3.98 3.11-6.22 5.04-9.21 1.93-2.99 6.91-13.63 11.08-20.79.38-.68.82-1.53 1.3-2.54z" fill="#a1c180"/><path d="m156.02 411.44.05.1c.02.04.04.07.01.03a.767.767 0 0 0-.05-.19c-.08-.29-.23-.7-.41-1.22-.38-1.04-.95-2.52-1.72-4.24-.78-1.71-1.75-3.69-3.07-5.52-.66-.91-1.44-1.78-2.31-2.41a4.5 4.5 0 0 0-1.38-.7c-.21-.06-.54-.14-.85-.2-.31-.07-.61-.12-.95-.21-1.32-.34-2.52-.84-3.65-1.19-1.12-.35-2.22-.55-3.35-.58-1.13-.05-2.25.01-3.32.08-1.07.11-2.09.19-3.03.3-1.89.23-3.46.42-4.57.55-1.11.13-1.75.19-1.75.19s.6-.22 1.66-.58c.53-.18 1.17-.4 1.92-.6.75-.22 1.59-.47 2.53-.69a38.4 38.4 0 0 1 3.05-.65c1.1-.17 2.27-.35 3.53-.36 1.24-.03 2.61.09 3.88.49 1.27.37 2.43.82 3.57 1.1.27.09.6.15.91.22.31.07.6.14 1 .25.72.24 1.4.59 1.95 1.03 1.15.85 1.93 1.94 2.62 2.98.68 1.05 1.19 2.13 1.63 3.16.44 1.03.78 2.03 1.06 2.95.56 1.85.87 3.43 1.03 4.54.09.55.12 1 .14 1.3.01.07 0 .15 0 .2-.02.16-.11-.01-.09-.02a.817.817 0 0 1-.04-.11zm-8.69-62.29s.24.58.62 1.61c.34 1.05.78 2.57 1.19 4.41.42 1.83.83 3.98 1.25 6.28.21 1.15.42 2.33.64 3.53.23 1.2.43 2.42.69 3.63.22 1.22.47 2.43.73 3.61.25 1.19.55 2.34.81 3.46.33 1.1.58 2.19.91 3.19.35.99.61 1.96.99 2.8.34.85.64 1.65 1.01 2.3.35.66.59 1.29.92 1.72.58.91.91 1.46.91 1.46s-.45-.43-1.23-1.22c-.42-.38-.79-.94-1.25-1.56-.22-.32-.49-.64-.71-1.01-.22-.38-.44-.77-.68-1.19-.51-.82-.9-1.77-1.35-2.77-.44-1-.81-2.09-1.2-3.21-.32-1.14-.74-2.3-1-3.52-.3-1.21-.58-2.44-.82-3.67-.25-1.24-.42-2.48-.63-3.7-.19-1.22-.33-2.43-.48-3.59-.28-2.33-.48-4.5-.65-6.36-.09-.93-.16-1.78-.23-2.54-.08-.75-.15-1.41-.21-1.95-.14-1.09-.23-1.71-.23-1.71z"/><path d="M197.19 344.15c11.81-.75 15.82 50.89 14.47 63.94-.94 9.18-10.82 30.94-16.6 43.05l-2.81-.95c4.6-9.75 12.44-33.17 12.44-33.17s5.52-9.04 3.39-23.66c-2.14-14.62-6.16-13.56-7.16-15.32-1-1.76-6.27-4.65-6.59-5.39-.31-.76-10.04-7.92-10.04-7.92-2.07-2.39-6.09-3.71-5.84-5.14.25-1.45-4.21-4.84-5.21-5.28-1-.43-3.89-2.44-3.89-4.2s-11.18-11.8-12.12-11.8c-.93 0-5.71-4.27-5.84-6.72-.12-2.45-4.14-4.96-4.14-4.96-2.89-1.82-6.53-4.83-8.17-5.46-1.63-.62-1.76-2.07-2.63-3.01-.88-.93.25-6.21.31-7.34.06-1.12 1.38-5.96 1.7-6.9.31-.94 1.45-2.89 2.19-3.58.76-.69 1.2-3.2 1.51-4.65.32-1.45 1.2-2.38 2.64-3.52 1.45-1.14 3.46-1.26 3.46-1.26l.81-1.63c1.82-10.3 10.84-10.11 10.84-10.11 3.81.36 10.18 15.04 10.42 17.33.96 8.72 5.09 19.83 8.57 27.5 5.07 11.23 10.16 20.66 18.29 20.15zm-4.94 106.04 2.81.95c-2.44 5.11-4.15 8.51-4.15 8.51s-7.12 18.28-8.04 17.41l.45 1.87c.46 1.86 1.77 1.63 3.9 2.57s1.82 1.06 2.39 2.57c.56 1.51-.76 2.95-.76 2.95-.31.69 1 .75 1.95.87.94.13 1.26 1.07 1.89 2.08.62 1-1.57 1.44-1.57 1.44l-6.41 2.14c-.31.37-7.98 3.01-8.35 3.89-.38.88-5.15 2.01-7.34 2.51-2.2.5-3.27 0-4.52.69-1.27.69-2.95.63-2.95.63h-2.64c-.62 0 .31-.63.69-.88.38-.25 2.39-1.51 3.64-1.88 1.27-.38 4.65-1.32 5.52-1.95.88-.63 2.95-.56 3.84-1.14.87-.56.68-2.44 1-5.02.31-2.57.37-3.39 1.06-7.4.69-4.02 3.13-6.28 5.08-9.29 1.95-3.01 6.97-13.75 11.18-20.97.4-.68.84-1.54 1.33-2.55z" fill="#bcd8bd"/><path d="M169.24 291.23s.37 2.15 1.01 5.3c.17.79.35 1.64.53 2.54.2.89.42 1.84.64 2.81.49 1.94.97 4.01 1.6 6.04.27 1.03.59 2.04.91 3.04.31 1 .64 1.98.97 2.92.31.95.66 1.85.98 2.71.31.86.62 1.68.93 2.41.3.75.57 1.43.82 2.04.26.6.49 1.13.68 1.56.37.87.56 1.39.56 1.39s-.34-.42-.91-1.19c-.28-.38-.63-.85-1.01-1.4-.37-.55-.75-1.19-1.17-1.9-.21-.35-.43-.72-.65-1.1-.2-.39-.4-.8-.62-1.22-.42-.84-.88-1.72-1.25-2.67-.39-.95-.83-1.91-1.15-2.94-.36-1.02-.71-2.05-1-3.1-.3-1.05-.56-2.11-.8-3.16-.27-1.04-.4-2.09-.6-3.1-.32-2.02-.52-3.92-.59-5.55-.19-3.26.12-5.43.12-5.43z"/><path d="M146.19 500.16c-.38.29-.44.87-.25 1.31.19.44.58.76.98 1.02 1.84 1.19 4.3 1.36 6.29.43.5-.23.99-.54 1.54-.62.26-.04.54-.03.78-.15.49-.24.61-.91.42-1.42-.2-.5-.63-.87-1.05-1.22-1.35.6-2.88.57-4.36.52-1.08-.03-2.16-.06-3.23-.1-.4 0-.82-.01-1.12.23zm-10.44 4.39c.36.05.75.15 1.06-.02.71-.39.16-1.5-.52-1.95-1.95-1.27-4.41-1.33-6.74-1.34l-19.05-.12c-.53 0-1.13.03-1.46.44 1.54 1.19 3.64 1.23 5.58 1.32 4.48.22 8.93.99 13.22 2.29 1 .3 2.02.64 3.06.55 1.68-.16 3.19-1.39 4.85-1.17zm-20.06 15.99c.55-.3.59-1.07.43-1.67-.14-.55-.39-1.06-.71-1.52-.25-.36-.56-.67-.86-.99-.33-.35-.66-.69-.99-1.04l-3.42-3.57c-.22-.23-.45-.47-.74-.6-.36-.16-.78-.14-1.18-.12-1.07.06-2.27.18-2.98.99-.43.5-.6 1.17-.75 1.81-.04.16-.08.34-.03.5.04.15.15.28.26.4 2.61 2.85 6.08 4.92 9.84 5.84.37.08.79.16 1.13-.03zm34.67-7.34c-.2-.5-1.05-.33-1.25.16-.21.5.01 1.07.26 1.55s.53 1 .44 1.53c-.03.19-.11.38-.1.58.03.57.87.79 1.34.45.47-.33.63-.95.71-1.51.08-.57.12-1.17-.14-1.68-.31-.62-1.04-.99-1.72-.87.02-.26.21-.5.46-.58m12.43 3.46c.14-.16.15-.38.16-.59.02-.66.03-1.31.05-1.97.02-.78.09-1.68.73-2.13.22-.16.49-.24.69-.42.24-.2.37-.49.5-.78.45-1.01.91-2.04 1.08-3.14.05-.33-.02-.79-.35-.83-.23-.02-.41.18-.55.36-1 1.23-2.47 2.08-4.04 2.33-.46.07-.95.1-1.35.33-.4.23-.69.76-.48 1.17.29.57 1.18.45 1.64.89.49.46.3 1.25.18 1.9-.18 1-.03 2.18.77 2.8.29.24.74.35.97.08zm6.54-.19c-.79-.32-1.67.27-2.16.96-.5.69-.82 1.53-1.48 2.07-.12.1-.27.2-.32.35-.17.44.43.75.89.83 1.45.26 2.89.52 4.34.79.46.08.93.17 1.38.04.45-.12.86-.51.85-.97-.01-.28-.16-.53-.32-.77-.95-1.4-2.2-2.59-3.63-3.49m9.12 1.56c.1-.25-.28-.41-.55-.38-1.59.14-3.02 1.42-3.33 2.99-.04.22-.06.48.09.65.17.21.49.21.76.19 1.32-.09 2.65-.19 3.97-.28.35-.02.72-.06.99-.28.44-.36.41-1.07.09-1.54-.32-.47-.84-.74-1.34-1l-1.11-.57m4.59 3.01c-.41-.05-.85-.09-1.2.13-.34.23-.43.83-.06 1.01.11.05.23.06.35.06l2.06.09c.11.01.23.01.34-.03.31-.13.31-.61.08-.84-.24-.23-.6-.28-.93-.27s-.67.06-.99-.04m37.12-13.76.45-.03c-.9-.6-2.29-.18-2.72.81-.35.83-.09 1.86-.57 2.61-.35.55-1.01.8-1.49 1.23-.49.43-.76 1.28-.25 1.68.14.11.31.16.47.21l2.65.78c.18.05.37.11.55.07.25-.05.44-.24.6-.43 1.6-1.92 1.72-4.89.31-6.93zm3.1-7.08c-.05.72.61 1.34 1.31 1.5.7.16 1.44-.01 2.14-.19l3.84-.96c.8-.2 1.62-.4 2.44-.28.66.1 1.27.41 1.91.61 1.88.58 3.91.16 5.83-.26.29-.06.6-.14.81-.35.53-.54-.04-1.53-.78-1.7s-1.49.16-2.21.38c-2.06.61-4.26.34-6.39.16-1.62-.14-3.25-.22-4.88-.24-.15 0-.34.04-.35.19l-3.07.57c-.16.03-.33.06-.44.18-.11.1-.15.25-.16.39zm-7.35 20.79c-.04.32.25.58.53.74 1.12.61 2.51.44 3.7-.01 2.66-1.01 4.75-3.39 5.41-6.15.02-.08.04-.16.02-.24-.06-.3-.47-.32-.77-.26-1.68.31-3.41.63-4.88 1.52-1.58.96-2.71 2.48-3.8 3.97-.1.13-.19.27-.21.43zm26.75.64c1.33-.87 2.65-1.89 3.35-3.32.2-.42.35-.89.28-1.35-.08-.57-.52-1.07-1.07-1.23-.55-.16-1.19.02-1.57.45-.42.48-.51 1.16-.8 1.72-.73 1.39-2.51 1.73-3.97 2.28-.47.18-.98.44-1.13.92-.2.63.34 1.28.95 1.52 1.32.52 2.78-.21 3.96-.99z" fill="#5c5e3f"/><path d="M259.85 31.11v137.37h-68.62z"/><path d="M282.09 31.11v137.37h68.62z" fill="#7c321d"/><path d="M378.82 224.9H163.14l19.45-38.99h176.76z" fill="#a0c080"/><path d="M359.35 185.91H182.59l1.7-3.36h173.38z" fill="#7c321d"/></svg>